<?xml version="1.0" encoding="UTF-8" standalone="no"?>
<svg width="46px" height="46px" viewBox="0 0 46 46" version="1.1" xmlns="http://www.w3.org/2000/svg" xmlns:xlink="http://www.w3.org/1999/xlink" xmlns:sketch="http://www.bohemiancoding.com/sketch/ns">
    <!-- Generator: Sketch 3.0.4 (8053) - http://www.bohemiancoding.com/sketch -->
    <title>squircle</title>
    <desc>Created with Sketch.</desc>
    <defs></defs>
    <g id="Page-1" stroke="none" stroke-width="1" fill="none" fill-rule="evenodd" sketch:type="MSPage">
        <path d="M39.9571575,44.6397402 C36.8391181,45.2098504 31.4879055,45.8259606 22.915063,45.8259606 C14.337874,45.8259606 8.99137008,45.2098504 5.86844094,44.6397402 C3.77761417,44.2568898 1.57214961,42.0485276 1.18766929,39.9558898 C0.617559055,36.8360394 0,31.4864567 0,22.9121654 C0,14.3395039 0.617559055,8.98974016 1.18766929,5.87025197 C1.57214961,3.77598425 3.77761417,1.57070079 5.86844094,1.18622047 C8.99137008,0.614661417 14.337874,0 22.915063,0 C31.4879055,0 36.8391181,0.614661417 39.9571575,1.18622047 C42.0497953,1.57070079 44.2567087,3.77598425 44.6395591,5.87025197 C45.2125669,8.98974016 45.8274094,14.3395039 45.8274094,22.9121654 C45.8274094,31.4864567 45.2125669,36.8360394 44.6395591,39.9558898 C44.2567087,42.0485276 42.0497953,44.2568898 39.9571575,44.6397402" id="squircle" fill="#2D5BE3" sketch:type="MSShapeGroup"></path>
    </g>
</svg>