<svg id="Layer_1" data-name="Layer 1" xmlns="http://www.w3.org/2000/svg" viewBox="0 0 161.12 57.3">
  <title>apple-store</title>
  <path
    d="M58.23,49.64h3a0.36,0.36,0,1,0,0-.71h-3A0.36,0.36,0,0,0,58.23,49.64ZM59.74,76a1.57,1.57,0,1,0,1.57,1.57A1.57,1.57,0,0,0,59.74,76ZM52,74.7H67.42V52H52V74.7Zm49.3-7.47a3.06,3.06,0,0,0-2,.72,3.4,3.4,0,0,0-1.16,1.91,4,4,0,0,0-.13.9V73A3.54,3.54,0,0,0,99,75.44a3,3,0,0,0,2.31,1,3,3,0,0,0,2.6-1.29,5.67,5.67,0,0,0,.93-3.4,5.46,5.46,0,0,0-.87-3.2A3,3,0,0,0,101.35,67.24Zm53.92-.18a3,3,0,0,0-2.7,1.58,6,6,0,0,0-.8,3.19,5.88,5.88,0,0,0,.8,3.14,3,3,0,0,0,2.68,1.58,2.94,2.94,0,0,0,2.65-1.61,5.85,5.85,0,0,0,.83-3.16,6,6,0,0,0-.79-3.14A2.94,2.94,0,0,0,155.27,67.05Zm-39.3.18a3.06,3.06,0,0,0-2,.72,3.41,3.41,0,0,0-1.17,1.91,3.88,3.88,0,0,0-.13.9V73a3.54,3.54,0,0,0,.89,2.45,3,3,0,0,0,2.31,1,3,3,0,0,0,2.61-1.29,5.65,5.65,0,0,0,.93-3.4,5.48,5.48,0,0,0-.88-3.2A3.05,3.05,0,0,0,116,67.24ZM85.42,62.48H85.37c-0.19.78-.47,1.94-0.88,3.48L83,70.77h5L86.36,66Q86.1,65.21,85.42,62.48Zm92.27,4.43a2.83,2.83,0,0,0-2.35,1.21,4.39,4.39,0,0,0-.88,2.29h6.16a4.05,4.05,0,0,0-.57-2.27A2.6,2.6,0,0,0,177.69,66.91ZM98.46,53.78a1.2,1.2,0,0,0,0-.38V52.46c-1.22,0-2.39.24-2.39,1.28a0.91,0.91,0,0,0,1,1A1.42,1.42,0,0,0,98.46,53.78ZM82.33,49.47c-0.18-.58-0.34-1.22-0.48-1.77h0c-0.14.55-.29,1.21-0.45,1.77l-0.73,2.34h2.43Zm98.09-.68c2.22,0,3,1.83,3,3.34a4.23,4.23,0,0,1-.06.73h-4.59a1.85,1.85,0,0,0,2.11,1.77,5.5,5.5,0,0,0,1.9-.31L183,55.51a6.16,6.16,0,0,1-2.39.44,3.24,3.24,0,0,1-3.53-3.46A3.39,3.39,0,0,1,180.42,48.8ZM153,49L153,50h0a2.51,2.51,0,0,1,2.19-1.18c1.2,0,2.43.77,2.43,2.94v4.07H156V51.94c0-1-.37-1.73-1.31-1.73a1.45,1.45,0,0,0-1.35,1,1.6,1.6,0,0,0-.08.55v4h-1.73V51c0-.79,0-1.45-0.06-2H153Zm-18.17-.15c2.22,0,3,1.83,3,3.34a4.23,4.23,0,0,1-.06.73H133.1a1.85,1.85,0,0,0,2.11,1.77,5.51,5.51,0,0,0,1.9-.31l0.25,1.18a6.17,6.17,0,0,1-2.39.44,3.24,3.24,0,0,1-3.53-3.46A3.39,3.39,0,0,1,134.79,48.8Zm-7.09-3h1.73v10h-1.73v-10ZM114,50a3.63,3.63,0,0,0-1.84.51l-0.34-1.13a4.93,4.93,0,0,1,2.48-.6,2.57,2.57,0,0,1,2.83,2.9v2.46a9.29,9.29,0,0,0,.11,1.65h-1.56L115.52,55h0a2.51,2.51,0,0,1-2,.91,2,2,0,0,1-2.15-2c0-1.72,1.53-2.6,4.07-2.59V51.22A1.17,1.17,0,0,0,114,50ZM103.74,46.1a0.94,0.94,0,1,1-1,.94A0.92,0.92,0,0,1,103.74,46.1ZM104.59,49v6.85h-1.73V49h1.73Zm-23.8-2.63H83l3.08,9.48H84.21l-0.86-2.69h-3l-0.82,2.69H77.75ZM69.27,77.77a3,3,0,0,1-3,3h-13a3,3,0,0,1-3-3V48.89a3,3,0,0,1,3-3h13a3,3,0,0,1,3,3V77.77Zm20.89,0.69L88.43,73h-6l-1.64,5.41H77.73L83.67,60h3.67l6,18.45H90.16Zm0.67-22.66h-1.7L86.58,49h1.87l1.11,3.48c0.2,0.6.34,1.15,0.46,1.72h0c0.13-.56.28-1.1,0.46-1.72L91.63,49h1.82Zm3.56-1.89c0-1.72,1.53-2.6,4.07-2.59V51.22A1.17,1.17,0,0,0,97.06,50a3.63,3.63,0,0,0-1.84.51L94.88,49.4a4.93,4.93,0,0,1,2.48-.6,2.57,2.57,0,0,1,2.83,2.9v2.46a9.19,9.19,0,0,0,.11,1.65H98.74L98.61,55h0a2.51,2.51,0,0,1-2,.91A2,2,0,0,1,94.39,53.92ZM106,77a5.42,5.42,0,0,1-4.1,1.75,4.09,4.09,0,0,1-3.8-1.89v7h-3V69.53q0-2.13-.11-4.37h2.6l0.16,2.11h0.05a5.27,5.27,0,0,1,8.42-.52,7.34,7.34,0,0,1,1.57,4.9A7.52,7.52,0,0,1,106,77ZM109,55.81h-1.73v-10H109v10ZM120.58,77a5.42,5.42,0,0,1-4.1,1.75,4.09,4.09,0,0,1-3.79-1.89v7h-3V69.53q0-2.13-.11-4.37h2.59l0.17,2.11h0.05a5.27,5.27,0,0,1,8.42-.52,7.31,7.31,0,0,1,1.58,4.9A7.52,7.52,0,0,1,120.58,77Zm2-21.05a2.36,2.36,0,0,1-2.17-1.18h0l-0.08,1h-1.48c0-.46.06-1.22,0.06-1.93V45.82h1.73V49.9h0a2.48,2.48,0,0,1,2.2-1.1c1.67,0,2.87,1.39,2.86,3.48C125.72,54.74,124.16,56,122.61,56Zm14.88,21.16a7.28,7.28,0,0,1-5,1.61,8.81,8.81,0,0,1-4.78-1.15l0.69-2.46a8.26,8.26,0,0,0,4.26,1.15,4.05,4.05,0,0,0,2.6-.75,2.46,2.46,0,0,0,.93-2,2.58,2.58,0,0,0-.76-1.88,7.22,7.22,0,0,0-2.54-1.42Q128,68.39,128,64.92a4.66,4.66,0,0,1,1.71-3.73,6.78,6.78,0,0,1,4.53-1.45,9,9,0,0,1,4.19.87L137.69,63a7.32,7.32,0,0,0-3.54-.85,3.68,3.68,0,0,0-2.45.76,2.22,2.22,0,0,0-.74,1.68,2.28,2.28,0,0,0,.85,1.81,9.7,9.7,0,0,0,2.68,1.42A9,9,0,0,1,138,70.09a4.7,4.7,0,0,1,1.12,3.2A4.93,4.93,0,0,1,137.49,77.12Zm10.42-9.75h-3.26v6.47c0,1.64.58,2.45,1.73,2.45a5.39,5.39,0,0,0,1.31-.13l0.08,2.24a6.68,6.68,0,0,1-2.3.33,3.52,3.52,0,0,1-2.74-1.07,5.19,5.19,0,0,1-1-3.58V67.37h-1.94V65.16h1.94V62.72l2.9-.88v3.31h3.26v2.21ZM146.24,56a3.31,3.31,0,0,1-3.43-3.53,3.38,3.38,0,0,1,3.55-3.63,3.29,3.29,0,0,1,3.41,3.52A3.39,3.39,0,0,1,146.24,56ZM160,76.74a6.27,6.27,0,0,1-4.87,2,6,6,0,0,1-4.67-1.94,7.08,7.08,0,0,1-1.73-4.9,7.23,7.23,0,0,1,1.79-5.06,6.19,6.19,0,0,1,4.83-2,6.06,6.06,0,0,1,4.71,1.94,7,7,0,0,1,1.69,4.87A7.3,7.3,0,0,1,160,76.74ZM163.09,49h1V47.67l1.7-.48V49h1.65v1.29h-1.65v3c0,0.84.22,1.27,0.89,1.27a2.28,2.28,0,0,0,.68-0.07l0,1.31a3.81,3.81,0,0,1-1.25.18,2,2,0,0,1-1.49-.56,2.7,2.7,0,0,1-.55-1.93V50.25h-1V49Zm7.59,18.8a5.26,5.26,0,0,0-.93-0.08,2.8,2.8,0,0,0-2.41,1.17,4.39,4.39,0,0,0-.74,2.63v7h-3V69.34q0-2.29-.08-4.18h2.57l0.11,2.55h0.08a4.47,4.47,0,0,1,1.48-2.1,3.55,3.55,0,0,1,2.14-.71,4.64,4.64,0,0,1,.73,0v2.82Zm0.45-16.06v4.11H169.4v-10h1.73v4.07h0a2.28,2.28,0,0,1,.86-0.77,2.43,2.43,0,0,1,1.2-.31c1.17,0,2.39.77,2.39,3v4h-1.73V52c0-1-.37-1.75-1.32-1.75a1.44,1.44,0,0,0-1.35,1A1.54,1.54,0,0,0,171.13,51.7Zm12.2,20.83h-8.87a3.84,3.84,0,0,0,1.29,3,4.37,4.37,0,0,0,2.9.93,9.67,9.67,0,0,0,3.59-.63l0.47,2.06a11,11,0,0,1-4.46.82,6.45,6.45,0,0,1-4.85-1.82A6.72,6.72,0,0,1,171.61,72a7.66,7.66,0,0,1,1.64-5,5.69,5.69,0,0,1,4.66-2.13A4.94,4.94,0,0,1,182.26,67a7.21,7.21,0,0,1,1.18,4.19A7.41,7.41,0,0,1,183.33,72.53Zm-61.1-22.38a1.61,1.61,0,0,0-1.53,1.27,2,2,0,0,0-.06.45V53a1.91,1.91,0,0,0,0,.41,1.58,1.58,0,0,0,1.53,1.21c1.08,0,1.75-.86,1.75-2.25C124,51.13,123.38,50.15,122.23,50.15ZM134.69,50a1.69,1.69,0,0,0-1.59,1.67h3A1.47,1.47,0,0,0,134.69,50Zm11.63,0.07c-1.22,0-1.72,1.2-1.72,2.34,0,1.32.66,2.32,1.7,2.32s1.67-1,1.67-2.35C148,51.29,147.5,50.05,146.31,50.05ZM113,53.74a0.91,0.91,0,0,0,1,1,1.42,1.42,0,0,0,1.37-.94,1.18,1.18,0,0,0,0-.38V52.46C114.18,52.44,113,52.7,113,53.74ZM180.32,50a1.69,1.69,0,0,0-1.59,1.67h3A1.47,1.47,0,0,0,180.32,50Z"
    transform="translate(-36.26 -34.67)" style="fill:#ffffff"/>
  <path
    d="M189.66,92H44a7.73,7.73,0,0,1-7.72-7.71V42.39A7.73,7.73,0,0,1,44,34.67H189.66a7.73,7.73,0,0,1,7.72,7.72V84.26A7.73,7.73,0,0,1,189.66,92ZM44,36.67a5.73,5.73,0,0,0-5.72,5.72V84.26A5.73,5.73,0,0,0,44,90H189.66a5.73,5.73,0,0,0,5.72-5.71V42.39a5.73,5.73,0,0,0-5.72-5.72H44Z"
    transform="translate(-36.26 -34.67)" style="fill:#ffffff"/>
</svg>
